<?xml version="1.0" encoding="UTF-8"?>
<svg version="1.1" xmlns="http://www.w3.org/2000/svg" width="512" height="512">
<path d="M0 0 C0.50901855 0.4338501 1.01803711 0.8677002 1.54248047 1.31469727 C2.13061523 1.80204346 2.71875 2.28938965 3.32470703 2.79150391 C3.93024414 3.31607178 4.53578125 3.84063965 5.15966797 4.38110352 C6.46851479 5.47350744 7.77843184 6.56463021 9.08935547 7.65454102 C9.74387695 8.20464844 10.39839844 8.75475586 11.07275391 9.3215332 C14.0764234 11.80490554 17.17614408 14.15626568 20.28466797 16.50610352 C22.21458316 17.96794226 24.13390775 19.44405167 26.03466797 20.94360352 C26.65083984 21.42700195 27.26701172 21.91040039 27.90185547 22.40844727 C30.02839347 25.2902729 28.96318065 28.49325524 28.56201172 31.86938477 C27.73931094 36.66542563 26.46391822 41.29629295 25.03466797 45.94360352 C25.85966797 46.14985352 26.68466797 46.35610352 27.53466797 46.56860352 C35.50075423 49.6981374 41.43947134 55.13721083 45.03466797 62.94360352 C46.33181786 67.56928898 47.26598045 72.20336381 48.03466797 76.94360352 C49.04142578 77.15114258 50.04818359 77.35868164 51.08544922 77.57250977 C79.46706204 83.68284375 111.01740082 96.7769793 129.97216797 119.69360352 C131.81634012 121.71566612 131.81634012 121.71566612 134.03466797 122.94360352 C138.27009201 122.88973485 142.05325999 121.29389564 146.03466797 119.94360352 C158.49798758 116.26791638 170.81623977 115.54091257 183.72216797 115.50610352 C184.81744308 115.49711533 184.81744308 115.49711533 185.93484497 115.48794556 C200.31156492 115.40945041 214.20659369 117.35469616 227.97216797 121.63110352 C228.79934326 121.88529053 229.62651855 122.13947754 230.47875977 122.40136719 C254.54789927 130.05920883 275.36731631 143.14837314 293.58203125 160.55834961 C294.98100519 161.89242997 296.39622467 163.2094108 297.81201172 164.52563477 C310.05006347 176.23694111 319.328191 189.92391435 327.03466797 204.94360352 C327.35274414 205.55526367 327.67082031 206.16692383 327.99853516 206.79711914 C347.34154285 244.4321038 347.71290532 286.20342055 335.50341797 326.05297852 C328.08814827 349.08051785 315.7062611 368.50302546 299.03466797 385.94360352 C298.04853516 387.02448242 298.04853516 387.02448242 297.04248047 388.12719727 C285.95501634 399.86317345 272.31606867 408.61593618 258.03466797 415.94360352 C257.42300781 416.26167969 256.81134766 416.57975586 256.18115234 416.9074707 C218.81553326 436.11203432 174.04213038 438.97174901 134.03466797 426.94360352 C114.13430187 420.39273786 94.61182019 410.4718116 79.62841797 395.61157227 C78.77340698 394.77505127 78.77340698 394.77505127 77.90112305 393.92163086 C76.81143079 392.8406536 75.74188795 391.73883155 74.69750977 390.61401367 C73.04009367 388.86595885 73.04009367 388.86595885 70.03466797 386.94360352 C66.97273668 386.98060571 64.9161968 387.20388505 62.03466797 387.94360352 C61.3848999 388.09079834 60.73513184 388.23799316 60.06567383 388.38964844 C58.72482087 388.69922894 57.3866848 389.02077321 56.05126953 389.35302734 C17.84457634 398.7740348 -24.02469009 393.78623152 -58.08837891 373.69116211 C-96.26901798 350.07849328 -124.08581677 313.15704913 -134.71533203 269.38110352 C-143.02903956 233.01308282 -140.43870808 195.26021211 -122.96533203 161.94360352 C-122.63162598 161.29439941 -122.29791992 160.64519531 -121.95410156 159.97631836 C-112.47515891 141.68571526 -99.02269696 124.93117809 -82.96533203 111.94360352 C-83.43970703 110.89172852 -83.91408203 109.83985352 -84.40283203 108.75610352 C-88.45924034 99.1699688 -87.60337862 89.58171203 -83.96533203 79.94360352 C-82.70378546 77.55945264 -81.3498904 75.26073632 -79.96533203 72.94360352 C-80.74779297 72.10055664 -81.53025391 71.25750977 -82.33642578 70.38891602 C-83.35868029 69.28225518 -84.3808092 68.17547831 -85.40283203 67.06860352 C-85.91910156 66.51301758 -86.43537109 65.95743164 -86.96728516 65.38500977 C-91.97518221 59.95160512 -91.97518221 59.95160512 -91.93017578 55.34594727 C-91.06471983 48.43199279 -88.1127625 42.08142332 -85.44555664 35.70263672 C-84.52187447 33.49184435 -83.61639846 31.27423356 -82.71337891 29.05493164 C-82.13303849 27.64369631 -81.55169442 26.2328732 -80.96923828 24.82250977 C-80.69833878 24.16110489 -80.42743927 23.49970001 -80.14833069 22.81825256 C-78.99394072 20.07052069 -78.09440586 18.07267735 -75.96533203 15.94360352 C-73.89925652 15.24112794 -71.80399262 14.62369985 -69.69897461 14.04833984 C-69.05643738 13.87087723 -68.41390015 13.69341461 -67.75189209 13.51057434 C-65.62313156 12.92498327 -63.49174515 12.34975077 -61.35986328 11.77563477 C-59.8772779 11.37274172 -58.39475 10.96963714 -56.91227722 10.56632996 C-53.80064014 9.72180449 -50.68754125 8.88292672 -47.57348633 8.04736328 C-43.59302387 6.97838331 -39.61786515 5.8909623 -35.64377308 4.79857349 C-32.58093836 3.95975102 -29.51487582 3.1332541 -26.44779015 2.31012535 C-24.98148426 1.91455385 -23.51633916 1.51465221 -22.05243874 1.11026955 C-19.99773658 0.54417072 -17.93910187 -0.00452902 -15.87866211 -0.54931641 C-14.709991 -0.86527267 -13.54131989 -1.18122894 -12.3372345 -1.50675964 C-7.98831986 -2.21565432 -3.94419306 -2.12006502 0 0 Z M-19.34033203 11.94360352 C-20.58556641 12.31485352 -21.83080078 12.68610352 -23.11376953 13.06860352 C-24.05478516 13.35735352 -24.99580078 13.64610352 -25.96533203 13.94360352 C-24.42482572 18.32027378 -20.99997563 20.49423076 -17.40283203 23.13110352 C-16.21375073 24.02005307 -15.02493487 24.90935783 -13.83642578 25.79907227 C-12.41523438 26.86061523 -12.41523438 26.86061523 -10.96533203 27.94360352 C-10.63533203 28.27360352 -10.30533203 28.60360352 -9.96533203 28.94360352 C-3.13546979 28.50296724 3.59942415 27.34532844 10.03466797 24.94360352 C10.36466797 24.28360352 10.69466797 23.62360352 11.03466797 22.94360352 C9.82230469 22.03868164 9.82230469 22.03868164 8.58544922 21.11547852 C7.50598955 20.30823042 6.4265643 19.5009363 5.34716797 18.69360352 C4.29142578 17.90469727 3.23568359 17.11579102 2.14794922 16.30297852 C-0.96533203 13.94360352 -0.96533203 13.94360352 -3.48486328 11.64672852 C-8.62212468 8.11941203 -13.75931698 10.25876878 -19.34033203 11.94360352 Z M-67.96533203 24.94360352 C-70.81067255 27.9537321 -71.79114794 31.02406518 -72.96533203 34.94360352 C-73.74907973 36.75954181 -74.54049263 38.5721952 -75.34033203 40.38110352 C-76.94855091 44.05925756 -76.94855091 44.05925756 -75.96533203 47.94360352 C-64.57252683 46.33337303 -64.57252683 46.33337303 -55.53955078 40.03344727 C-54.03023982 36.69892304 -52.92566357 33.47313372 -51.96533203 29.94360352 C-51.34529478 28.17102644 -50.72104726 26.39990933 -50.09033203 24.63110352 C-49.71908203 23.41422852 -49.34783203 22.19735352 -48.96533203 20.94360352 C-55.26867521 20.94360352 -62.22483723 22.23272487 -67.96533203 24.94360352 Z M-37.96533203 21.94360352 C-38.9695284 24.40029822 -39.96883704 26.85878705 -40.96533203 29.31860352 C-41.25150391 30.01727539 -41.53767578 30.71594727 -41.83251953 31.43579102 C-43.41057602 35.07246313 -43.41057602 35.07246313 -43.96533203 38.94360352 C-41.21380132 38.32480949 -38.46424305 37.69884165 -35.71533203 37.06860352 C-34.93802734 36.89458008 -34.16072266 36.72055664 -33.35986328 36.54125977 C-32.60576172 36.36723633 -31.85166016 36.19321289 -31.07470703 36.01391602 C-30.38344727 35.85681152 -29.6921875 35.69970703 -28.97998047 35.5378418 C-26.81796078 34.90013507 -24.94929118 34.00560518 -22.96533203 32.94360352 C-25.75349083 30.07095506 -28.60511604 27.29941759 -31.59033203 24.63110352 C-32.16009766 24.1193457 -32.72986328 23.60758789 -33.31689453 23.08032227 C-35.04322622 21.65975983 -35.04322622 21.65975983 -37.96533203 21.94360352 Z M15.03466797 33.94360352 C11.90479753 34.69550424 8.78193825 35.47329293 5.65966797 36.25610352 C4.77021484 36.46944336 3.88076172 36.6827832 2.96435547 36.90258789 C2.11357422 37.11850586 1.26279297 37.33442383 0.38623047 37.55688477 C-0.79205322 37.84752808 -0.79205322 37.84752808 -1.99414062 38.14404297 C-4.32553301 38.87449152 -4.32553301 38.87449152 -5.96533203 41.94360352 C-6.6133514 44.49947778 -7.18098363 47.02064914 -7.69189453 49.60375977 C-7.84443695 50.3494371 -7.99697937 51.09511444 -8.15414429 51.86338806 C-8.47483719 53.43710614 -8.79236115 55.01147286 -9.10693359 56.58642578 C-9.58947593 59.00181823 -10.08120908 61.41519367 -10.57470703 63.82836914 C-10.88513898 65.35755728 -11.19505262 66.88685075 -11.50439453 68.41625977 C-11.65123688 69.14023453 -11.79807922 69.86420929 -11.94937134 70.61012268 C-12.70268272 74.24868189 -12.70268272 74.24868189 -12.96533203 77.94360352 C-10.3108803 77.71040869 -7.65730748 77.4711574 -5.00439453 77.22094727 C-3.10504679 77.04761347 -1.20399713 76.89113615 0.69873047 76.76000977 C2.82142149 76.59060934 4.93155761 76.27743056 7.03466797 75.94360352 C9.36702279 72.44507129 9.9958616 69.18094731 10.79638672 65.13500977 C10.95130081 64.37187973 11.1062149 63.60874969 11.26582336 62.82249451 C11.59099679 61.21014063 11.91270824 59.59708522 12.23120117 57.98339844 C12.72010265 55.51652457 13.22530041 53.05337337 13.73193359 50.59008789 C14.0460784 49.02192727 14.3592617 47.45357366 14.67138672 45.88500977 C14.82339035 45.1494838 14.97539398 44.41395782 15.13200378 43.65614319 C15.80911679 40.15965043 16.35173045 37.3277453 15.03466797 33.94360352 Z M-17.96533203 42.94360352 C-21.75794259 43.91913882 -25.54925046 44.8996446 -29.34033203 45.88110352 C-30.42056641 46.15889648 -31.50080078 46.43668945 -32.61376953 46.72290039 C-34.16064453 47.12412109 -34.16064453 47.12412109 -35.73876953 47.53344727 C-36.69187012 47.77957764 -37.6449707 48.02570801 -38.62695312 48.27929688 C-40.96144586 48.86425782 -40.96144586 48.86425782 -42.96533203 49.94360352 C-41.66117777 52.79505944 -40.24813142 54.94062903 -38.10205078 57.22094727 C-37.54453125 57.81713867 -36.98701172 58.41333008 -36.41259766 59.02758789 C-35.54151367 59.94507813 -35.54151367 59.94507813 -34.65283203 60.88110352 C-34.08371094 61.48889648 -33.51458984 62.09668945 -32.92822266 62.72290039 C-29.66771762 66.19303606 -26.35120803 69.59584244 -22.96533203 72.94360352 C-21.2185999 66.2911556 -19.61971171 59.61374405 -18.21533203 52.88110352 C-17.95236328 51.63200195 -17.68939453 50.38290039 -17.41845703 49.09594727 C-16.72249321 45.92547138 -16.72249321 45.92547138 -17.96533203 42.94360352 Z M-68.77783203 56.44360352 C-69.96022461 56.80131836 -69.96022461 56.80131836 -71.16650391 57.16625977 C-73.10131805 57.75256708 -75.03358913 58.3472551 -76.96533203 58.94360352 C-76.59964111 59.36988037 -76.2339502 59.79615723 -75.85717773 60.23535156 C-72.77519794 63.82927178 -69.69877475 67.42781337 -66.62792969 71.03125 C-65.09159056 72.82771407 -63.54636055 74.61627712 -62.00048828 76.40454102 C-60.09539519 78.61069029 -58.2291787 80.83916318 -56.39892578 83.10766602 C-55.63708984 84.02290039 -54.87525391 84.93813477 -54.09033203 85.88110352 C-53.43291016 86.69450195 -52.77548828 87.50790039 -52.09814453 88.34594727 C-50.03623595 90.23180839 -50.03623595 90.23180839 -47.16845703 89.88891602 C-43.51364548 88.8103009 -40.05908268 87.44167922 -36.59033203 85.88110352 C-35.94966797 85.59944336 -35.30900391 85.3177832 -34.64892578 85.02758789 C-33.08503544 84.33900931 -31.52479262 83.64215641 -29.96533203 82.94360352 C-34.07231241 77.12538132 -38.62313317 71.92913279 -43.49389648 66.75268555 C-46.97364721 63.05202411 -50.25815094 59.25822439 -53.36767578 55.23657227 C-54.90853651 53.77220445 -54.90853651 53.77220445 -57.10595703 53.58813477 C-61.14434518 54.09017482 -64.89842114 55.24043333 -68.77783203 56.44360352 Z M23.03466797 56.94360352 C22.55246534 58.81782504 22.07404964 60.69302106 21.59716797 62.56860352 C21.33033203 63.61274414 21.06349609 64.65688477 20.78857422 65.73266602 C20.07416097 68.77540017 19.54849351 71.86065027 19.03466797 74.94360352 C24.64466797 75.27360352 30.25466797 75.60360352 36.03466797 75.94360352 C35.48042848 68.75326581 35.48042848 68.75326581 32.22216797 63.63110352 C31.47 62.6778418 31.47 62.6778418 30.70263672 61.70532227 C28.93716232 59.84061745 27.17827893 58.35673448 25.03466797 56.94360352 C24.37466797 56.94360352 23.71466797 56.94360352 23.03466797 56.94360352 Z M-71.96533203 81.94360352 C-75.70192904 87.54849903 -76.519037 92.2218827 -75.96533203 98.94360352 C-75.0673609 102.31181623 -75.0673609 102.31181623 -73.96533203 104.94360352 C-72.1935515 103.98702251 -70.42294127 103.02827364 -68.65283203 102.06860352 C-67.66669922 101.53493164 -66.68056641 101.00125977 -65.66455078 100.45141602 C-62.86946745 98.93638225 -62.86946745 98.93638225 -59.96533203 96.94360352 C-60.45279858 92.67827118 -63.1445912 90.17888757 -65.96533203 87.19360352 C-66.42939453 86.68700195 -66.89345703 86.18040039 -67.37158203 85.65844727 C-68.5430088 84.39507712 -69.75128861 83.16607779 -70.96533203 81.94360352 C-71.29533203 81.94360352 -71.62533203 81.94360352 -71.96533203 81.94360352 Z M-11.96533203 88.94360352 C-12.72458984 89.13696289 -13.48384766 89.33032227 -14.26611328 89.52954102 C-37.70230493 95.58482498 -59.60841107 106.03009525 -77.96533203 121.94360352 C-78.78259766 122.63969727 -79.59986328 123.33579102 -80.44189453 124.05297852 C-106.92214839 147.17196176 -124.22195484 180.72026936 -126.96533203 215.94360352 C-128.83783725 261.71513579 -116.53325493 303.89125676 -85.46533203 338.19360352 C-61.72632516 363.76028183 -28.51595153 380.87757645 6.63874817 382.19332886 C25.23712956 382.7633273 42.92247684 381.53222932 61.03466797 376.94360352 C59.37060072 373.28969924 57.15904184 370.15592657 54.84716797 366.88110352 C50.73082625 361.0112723 46.82722062 355.02876034 43.03466797 348.94360352 C42.17228516 349.01579102 41.30990234 349.08797852 40.42138672 349.16235352 C5.8446524 351.79120766 -27.12056085 347.43776522 -54.40234375 324.30737305 C-72.06870947 308.89276528 -84.95033822 288.67545055 -90.96533203 265.94360352 C-91.15998047 265.23494141 -91.35462891 264.5262793 -91.55517578 263.79614258 C-99.4377582 234.10765814 -96.17401712 201.4360746 -81.09033203 174.56860352 C-77.58502887 168.56957786 -73.48729018 163.20535032 -68.96533203 157.94360352 C-68.44841797 157.28231445 -67.93150391 156.62102539 -67.39892578 155.93969727 C-50.29276965 134.71777424 -20.1572566 121.64412373 6.30810547 118.39282227 C35.32542187 115.32219067 65.24643569 121.43956369 88.60107422 139.64672852 C91.85856641 142.29596949 94.95359744 145.09153147 98.03466797 147.94360352 C98.84419922 148.67192383 99.65373047 149.40024414 100.48779297 150.15063477 C123.72532435 172.04753933 135.00608229 204.24278215 135.99951172 235.51782227 C136.47950279 264.02929172 126.18735619 291.7489326 106.5234375 312.47387695 C101.90784691 317.19882753 97.05201399 321.64777849 92.03466797 325.94360352 C93.37621221 330.8650697 95.58955394 334.49076535 98.72216797 338.44360352 C99.1647998 339.01167725 99.60743164 339.57975098 100.06347656 340.16503906 C103.35475252 344.30085762 106.81584513 347.73362962 111.03466797 350.94360352 C142.19818418 326.53117786 161.1913343 294.62129662 167.34716797 255.50610352 C170.70715176 225.6216323 165.23037038 195.89742506 152.03466797 168.94360352 C151.73866699 168.32324219 151.44266602 167.70288086 151.13769531 167.0637207 C134.16469742 131.79729721 102.80074051 105.18824462 66.13623047 92.26000977 C42.16216917 84.27059283 12.62100688 82.30384858 -11.96533203 88.94360352 Z M144.03466797 131.94360352 C144.03466797 135.78640924 145.20697637 136.80155709 147.53466797 139.81860352 C151.54303512 145.16309305 155.03109725 150.67151916 158.46826172 156.38891602 C159.8047116 158.79138002 159.8047116 158.79138002 161.03466797 159.94360352 C163.64770614 159.99529756 166.23546104 159.98504474 168.84716797 159.93579102 C170.49820296 159.91822461 172.14924511 159.90132139 173.80029297 159.88500977 C176.39099405 159.85449104 178.9813268 159.81957877 181.57177734 159.7722168 C196.60485937 159.51191635 210.98257418 160.66007021 225.28466797 165.69360352 C226.02789307 165.94964355 226.77111816 166.20568359 227.53686523 166.46948242 C254.94161472 176.26047615 275.51778166 197.12482124 288.03466797 222.94360352 C301.75944604 252.9282156 303.18816749 288.59073562 291.82763672 319.52172852 C280.62700564 348.10134216 260.29731848 368.94595232 232.34326172 381.19360352 C202.57395818 393.60363576 169.34177181 394.56068661 139.25488281 382.86206055 C126.85710064 377.73335409 116.10455214 370.76597974 106.03466797 361.94360352 C105.21611328 361.22688477 104.39755859 360.51016602 103.55419922 359.77172852 C92.25382831 349.13137927 84.29134454 336.01927908 78.03466797 321.94360352 C77.55255859 320.87754883 77.07044922 319.81149414 76.57373047 318.71313477 C71.40421483 306.35329283 68.52658506 292.33230356 68.03466797 278.94360352 C67.99470703 278.11602539 67.95474609 277.28844727 67.91357422 276.43579102 C67.37559406 255.2330435 72.6315494 235.3123329 83.03466797 216.94360352 C83.86804688 215.46633789 83.86804688 215.46633789 84.71826172 213.95922852 C91.94759879 201.96234301 101.45118857 192.01223286 112.03466797 182.94360352 C108.43490184 173.11815491 101.09013784 165.46303853 94.03466797 157.94360352 C88.06580419 161.55633685 83.12264383 166.19753963 78.03466797 170.94360352 C77.12007812 171.77698242 77.12007812 171.77698242 76.18701172 172.62719727 C49.99118145 197.46059664 37.43454171 234.61924629 35.90576172 269.92016602 C35.14847959 309.80369145 49.78521255 349.35403934 77.40576172 378.21313477 C78.27330078 379.11418945 79.14083984 380.01524414 80.03466797 380.94360352 C81.07300781 382.0940918 81.07300781 382.0940918 82.13232422 383.26782227 C104.77283734 407.56602228 141.06656675 421.98526059 173.87330627 423.22718811 C188.38643299 423.64950539 202.91895563 423.6880255 217.03466797 419.94360352 C218.15180176 419.6695166 218.15180176 419.6695166 219.29150391 419.38989258 C246.56608787 412.60744193 270.25943999 398.76480513 290.03466797 378.94360352 C290.96666016 378.02321289 291.89865234 377.10282227 292.85888672 376.15454102 C319.48169955 348.58226981 333.66062292 309.55687002 333.38867188 271.50585938 C333.03122545 256.39804385 330.22853745 242.11278336 325.03466797 227.94360352 C324.78201172 227.25024902 324.52935547 226.55689453 324.26904297 225.8425293 C316.92196537 206.06574506 305.54515435 189.25262296 291.03466797 173.94360352 C290.57640625 173.44747559 290.11814453 172.95134766 289.64599609 172.44018555 C263.44061325 144.17282537 226.07289885 127.69135375 187.74560547 125.77954102 C173.14099582 125.42953948 157.93123625 127.35480696 144.03466797 131.94360352 Z M-61.55859375 166.33862305 C-79.16894333 186.43068104 -87.82209989 212.12437283 -86.90283203 238.75610352 C-84.6156837 265.17661006 -74.46922593 288.90626403 -55.96533203 307.94360352 C-55.34271484 308.6280957 -54.72009766 309.31258789 -54.07861328 310.01782227 C-38.0850527 327.08432612 -12.35511246 338.73708747 10.95581055 340.11645508 C13.90153082 340.1742191 16.83868001 340.16817224 19.78466797 340.13110352 C20.77337891 340.13045898 21.76208984 340.12981445 22.78076172 340.12915039 C27.96638202 340.09799513 32.92499074 339.83565611 38.03466797 338.94360352 C37.44685547 337.21110352 37.44685547 337.21110352 36.84716797 335.44360352 C36.24105827 333.61091164 35.63722315 331.77746712 35.03466797 329.94360352 C34.63634766 328.74477539 34.23802734 327.54594727 33.82763672 326.31079102 C20.29223457 284.86410056 24.36571478 239.78484158 43.97363281 200.90600586 C48.37042163 192.4099328 52.94587503 184.36002799 59.03466797 176.94360352 C59.43621094 176.43958008 59.83775391 175.93555664 60.25146484 175.41625977 C66.87484744 167.1096416 74.08699712 159.98366998 82.03466797 152.94360352 C83.04531668 151.95436685 84.05141491 150.96007458 85.03466797 149.94360352 C72.37777389 140.4137068 59.32758848 133.95353066 44.03466797 129.94360352 C43.15037109 129.69739258 42.26607422 129.45118164 41.35498047 129.19750977 C3.52155422 120.43417621 -36.31744524 138.68540951 -61.55859375 166.33862305 Z M166.03466797 170.94360352 C166.22577148 171.47501953 166.416875 172.00643555 166.61376953 172.55395508 C182.25135447 216.49349879 182.00966736 261.02567502 162.52294922 303.85375977 C156.60751927 316.27876648 149.1839133 327.66096872 140.03466797 337.94360352 C138.9421875 339.2159082 138.9421875 339.2159082 137.82763672 340.51391602 C133.23301863 345.77640329 128.35420342 350.52742221 123.10107422 355.13110352 C121.70422974 356.35631304 120.3485007 357.62977078 119.03466797 358.94360352 C140.71632022 376.35269488 166.83992399 383.23644729 194.35253906 380.73266602 C216.74916963 378.20856336 236.61836097 369.0523626 254.03466797 354.94360352 C254.73849609 354.40477539 255.44232422 353.86594727 256.16748047 353.31079102 C270.96507422 341.38884301 280.29426845 323.7038858 286.03466797 305.94360352 C286.24784668 305.30922363 286.46102539 304.67484375 286.68066406 304.02124023 C294.93017872 278.64466026 290.83516591 251.32514273 279.03466797 227.94360352 C265.62925047 202.19428349 243.02146998 182.44713143 215.42138672 173.37329102 C205.05800056 170.16118274 195.38457422 168.76304968 184.53466797 168.75610352 C183.52791016 168.74385742 182.52115234 168.73161133 181.48388672 168.71899414 C175.92861931 168.70807291 171.27955136 169.07990197 166.03466797 170.94360352 Z M109.03466797 199.94360352 C108.42751953 200.49532227 107.82037109 201.04704102 107.19482422 201.61547852 C88.1786555 219.72611539 78.60017995 247.85530458 77.703125 273.59594727 C77.44523561 287.89866697 79.63740876 303.01297321 86.03466797 315.94360352 C101.22173366 309.77498539 111.89189384 289.18866107 118.16650391 275.05249023 C129.1607852 248.3459093 128.69894326 219.54106481 118.03466797 192.94360352 C115.05062651 192.94360352 111.15116828 198.02020073 109.03466797 199.94360352 Z " fill="#4184FB" transform="translate(153.96533203125,61.056396484375)"/>
<path d="M0 0 C3.68359375 0.5 3.68359375 0.5 6.2734375 3 C7.08380742 4.14751883 7.86495014 5.31604658 8.62109375 6.5 C9.04293945 7.12793457 9.46478516 7.75586914 9.89941406 8.40283203 C24.57520519 30.82571561 31.93584226 55.26431122 32.18359375 82 C32.21138916 83.90688599 32.21138916 83.90688599 32.23974609 85.85229492 C32.22741943 87.64244019 32.22741943 87.64244019 32.21484375 89.46875 C32.21033203 90.53544922 32.20582031 91.60214844 32.20117188 92.70117188 C31.5600891 96.16785724 30.46485575 97.39174732 27.68359375 99.5 C24.2920508 99.33849795 23.10062618 98.91703243 20.68359375 96.5 C20.5869266 93.98967485 20.59954227 91.56779459 20.68359375 89.0625 C21.10552078 60.95613218 14.12457346 33.26495803 -3.77734375 11.10546875 C-5.63403953 7.96228071 -5.76751648 6.09384483 -5.31640625 2.5 C-3.31640625 0.5 -3.31640625 0.5 0 0 Z " fill="#77E7DD" transform="translate(446.31640625,257.5)"/>
<path d="M0 0 C3.125 0.8125 3.125 0.8125 5.125 2.8125 C5.54151414 6.27387613 5.49852101 8.18860795 3.69140625 11.20703125 C3.03011719 12.00496094 2.36882812 12.80289063 1.6875 13.625 C-16.17139808 37.04702385 -22.00260356 65.55584901 -20.6171875 94.52734375 C-20.875 96.8125 -20.875 96.8125 -22.19140625 98.63671875 C-23.875 99.8125 -23.875 99.8125 -26.9375 99.6875 C-29.875 98.8125 -29.875 98.8125 -31.875 95.8125 C-35.12096242 65.81053311 -27.76151144 37.16434889 -11.875 11.8125 C-11.52260254 11.23371094 -11.17020508 10.65492188 -10.80712891 10.05859375 C-5.29186017 1.10958358 -5.29186017 1.10958358 0 0 Z " fill="#4F3FFF" transform="translate(65.875,216.1875)"/>
<path d="M0 0 C3.23766826 2.40197323 5.97680445 5.328035 8.8125 8.1875 C9.60076172 8.94353516 10.38902344 9.69957031 11.20117188 10.47851562 C11.94560547 11.22166016 12.69003906 11.96480469 13.45703125 12.73046875 C14.13741455 13.40489014 14.81779785 14.07931152 15.51879883 14.77416992 C17.45295272 17.68066095 17.35007199 19.57515342 17 23 C15.875 24.9375 15.875 24.9375 14 26 C9.33588781 26.14219854 7.00365287 24.40313729 3.6953125 21.39453125 C2.15870254 19.88044057 0.63559889 18.35254277 -0.875 16.8125 C-1.65875 16.05646484 -2.4425 15.30042969 -3.25 14.52148438 C-8.83730588 8.90984354 -8.83730588 8.90984354 -9.61328125 4.5703125 C-9 2 -9 2 -7.3125 0.0625 C-4.33285687 -1.30652522 -3.11126418 -0.94077666 0 0 Z " fill="#4E40FF" transform="translate(50,49)"/>
<path d="M0 0 C3.125 0.375 3.125 0.375 4.6484375 2.3125 C6.59494726 6.34970542 7.74320656 10.42373632 8.875 14.75 C9.10832031 15.575 9.34164062 16.4 9.58203125 17.25 C10.94403911 22.38811349 11.27481559 26.17278556 10.125 31.375 C6.8125 32.0625 6.8125 32.0625 3.125 32.375 C-1.40102035 29.14921646 -1.88267278 23.06982987 -3.1875 18 C-3.47689453 16.9584375 -3.76628906 15.916875 -4.06445312 14.84375 C-4.32806641 13.83570313 -4.59167969 12.82765625 -4.86328125 11.7890625 C-5.10602783 10.8707666 -5.34877441 9.9524707 -5.59887695 9.00634766 C-5.92771208 5.87267393 -5.28455189 4.15986612 -3.875 1.375 C-2.875 0.375 -2.875 0.375 0 0 Z " fill="#4853FF" transform="translate(102.875,26.625)"/>
<path d="M0 0 C1.1875 2.75 1.1875 2.75 2 6 C0.56377695 8.63108211 -0.52086564 9.78406158 -3.26489258 11.02075195 C-4.13267334 11.25753662 -5.0004541 11.49432129 -5.89453125 11.73828125 C-6.85037109 12.00060547 -7.80621094 12.26292969 -8.79101562 12.53320312 C-9.78810547 12.79037109 -10.78519531 13.04753906 -11.8125 13.3125 C-12.79798828 13.58900391 -13.78347656 13.86550781 -14.79882812 14.15039062 C-23.89896012 16.57668505 -23.89896012 16.57668505 -29 15 C-30 14 -30 14 -30.1875 10.5625 C-30 7 -30 7 -28 5 C-24.48941323 3.70484367 -20.85881454 2.79567063 -17.25 1.8125 C-16.26 1.52697266 -15.27 1.24144531 -14.25 0.94726562 C-9.18368791 -0.44461557 -5.20040146 -1.53005009 0 0 Z " fill="#513AFF" transform="translate(50,103)"/>
<path d="M0 0 C2.15502531 3.23253796 2.46856135 4.25150923 2 8 C-0.10267895 10.62131529 -1.95639825 11.53354002 -5.16796875 12.38671875 C-5.97943359 12.60263672 -6.79089844 12.81855469 -7.62695312 13.04101562 C-8.47193359 13.25435547 -9.31691406 13.46769531 -10.1875 13.6875 C-11.4259668 14.02491211 -11.4259668 14.02491211 -12.68945312 14.36914062 C-17.93009159 15.72782467 -22.58489489 16.41561986 -28 16 C-30 14 -30 14 -30.4375 11.0625 C-30 8 -30 8 -28.0625 6.4765625 C-24.00950712 4.52244093 -19.91189433 3.42077523 -15.5625 2.3125 C-14.72912109 2.08755859 -13.89574219 1.86261719 -13.03710938 1.63085938 C-4.49559036 -0.59061079 -4.49559036 -0.59061079 0 0 Z " fill="#3A74FF" transform="translate(215,58)"/>
<path d="M0 0 C0.33 0.33 0.66 0.66 1 1 C0.62289799 7.72829379 -0.89917296 13.2286797 -3.4375 19.4375 C-3.75009766 20.23865234 -4.06269531 21.03980469 -4.38476562 21.86523438 C-6.71633185 27.71633185 -6.71633185 27.71633185 -9 30 C-12 30.25 -12 30.25 -15 30 C-17 28 -17 28 -17.09741211 26.1875 C-16.38110263 20.10396165 -14.74888972 14.70865912 -12.5625 9 C-12.24990234 8.14277344 -11.93730469 7.28554688 -11.61523438 6.40234375 C-8.9476004 -0.71510673 -7.88929065 -1.43441648 0 0 Z " fill="#4165FF" transform="translate(166,18)"/>
<path d="M0 0 C2.73586306 1.62072656 5.05670731 3.58887534 7.4375 5.6875 C8.07365234 6.20505859 8.70980469 6.72261719 9.36523438 7.25585938 C13.87453261 11.14518965 13.87453261 11.14518965 14.48046875 15.2734375 C14 18 14 18 12.875 19.9375 C11 21 11 21 8.375 21.1875 C4.03650414 19.6609922 1.4976448 17.19700293 -1.80859375 14.05859375 C-3.6603107 12.31910207 -5.52543764 10.81982983 -7.5625 9.3125 C-10 7 -10 7 -10.5625 4.375 C-10 2 -10 2 -8.9375 0.125 C-5.74763455 -1.72717994 -3.51406775 -0.84637607 0 0 Z " fill="#44CFF0" transform="translate(426,235)"/>
<path d="M0 0 C1.8125 1.1875 1.8125 1.1875 3 3 C3.2890625 5.40234375 3.2890625 5.40234375 3 8 C1.56640625 9.7734375 1.56640625 9.7734375 -0.4375 11.375 C-1.16582031 11.96023437 -1.89414063 12.54546875 -2.64453125 13.1484375 C-3.42183594 13.75945312 -4.19914062 14.37046875 -5 15 C-5.76699219 15.67289063 -6.53398438 16.34578125 -7.32421875 17.0390625 C-13.12662137 21.98440395 -13.12662137 21.98440395 -17.5 22.0625 C-20 21 -20 21 -21 19 C-21.3515625 16.1640625 -21.3515625 16.1640625 -21 13 C-19.0234375 10.5859375 -19.0234375 10.5859375 -16.375 8.375 C-15.46105469 7.61058594 -14.54710938 6.84617188 -13.60546875 6.05859375 C-12.74566406 5.37925781 -11.88585937 4.69992188 -11 4 C-10.09701172 3.27490234 -10.09701172 3.27490234 -9.17578125 2.53515625 C-6.10765613 0.27231332 -3.79339255 -0.71766886 0 0 Z " fill="#4A4CFF" transform="translate(93,193)"/>
</svg>
